<svg xmlns="http://www.w3.org/2000/svg" style="margin: auto; background: rgb(241, 242, 243); display: block; shape-rendering: auto;" width="520" height="120" preserveAspectRatio="xMidYMid">
    <style type="text/css">
        text {
        text-anchor: middle; font-size: 50px; opacity: 0;
        }
    </style>
    <g style="transform-origin:260px 60px;transform:scale(1)">
        <g transform="translate(260,60)">
            <g transform="translate(0,0)"><g class="path" style="transform: matrix(0.01, 0, 0, 0.01, 0, 0); transform-origin: -70.95px -3.61942px; animation: 1s linear 0s 1 normal forwards running bounce-in-c8effc56-f5ce-4528-a3a9-0bf791f65a3d;"><path d="M24.45-34.55L41.70-34.55L41.70 0L24.45 0L24.45-12.50L22.25-6.70L20.95-6.70L18.65-12.50L18.65 0L1.45 0L1.45-34.55L18.65-34.55L20.95-27.90L22.25-27.90L24.45-34.55" fill="#f2dc4d" stroke="none" stroke-width="none" transform="translate(-92.52499389648438,13.655574079241074)" style="fill: rgb(242, 220, 77);"></path></g><g class="path" style="transform: matrix(0.01, 0, 0, 0.01, 0, 0); transform-origin: -32.4px -1.14442px; animation: 1s linear 0.0942857s 1 normal forwards running bounce-in-c8effc56-f5ce-4528-a3a9-0bf791f65a3d;"><path d="M61.10 0.45L61.10 0.45L59.10 0.45L59.10 0.45Q51.80 0.45 48.18-3.15L48.18-3.15L48.18-3.15Q44.55-6.75 44.55-14.75L44.55-14.75L44.55-14.75Q44.55-22.75 48.18-26.40L48.18-26.40L48.18-26.40Q51.80-30.05 59.10-30.05L59.10-30.05L61.10-30.05L61.10-30.05Q68.40-30.05 72.05-26.40L72.05-26.40L72.05-26.40Q75.70-22.75 75.70-14.75L75.70-14.75L75.70-14.75Q75.70-6.75 72.08-3.15L72.08-3.15L72.08-3.15Q68.45 0.45 61.10 0.45zM58.70-15.15L58.70-15.15L58.70-10.95L58.70-10.95Q58.70-10.30 59.08-9.90L59.08-9.90L59.08-9.90Q59.45-9.50 60.08-9.50L60.08-9.50L60.08-9.50Q60.70-9.50 61.13-9.90L61.13-9.90L61.13-9.90Q61.55-10.30 61.55-10.95L61.55-10.95L61.55-15.15L61.55-15.15Q61.55-15.75 61.13-16.18L61.13-16.18L61.13-16.18Q60.70-16.60 60.10-16.60L60.10-16.60L60.10-16.60Q59.50-16.60 59.10-16.18L59.10-16.18L59.10-16.18Q58.70-15.75 58.70-15.15" fill="#f2dc4d" stroke="none" stroke-width="none" transform="translate(-92.52499389648438,13.655574079241074)" style="fill: rgb(255, 255, 255);"></path></g><g class="path" style="transform: matrix(0.01, 0, 0, 0.01, 0, 0); transform-origin: -0.299992px -1.11943px; animation: 1s linear 0.188571s 1 normal forwards running bounce-in-c8effc56-f5ce-4528-a3a9-0bf791f65a3d;"><path d="M91.00-29.55L92.00-10.95L93.30-10.95L94.25-29.55L107.90-29.55L103.50 0L81.05 0L76.55-29.55L91.00-29.55" fill="#f2dc4d" stroke="none" stroke-width="none" transform="translate(-92.52499389648438,13.655574079241074)" style="fill: rgb(0, 0, 0);"></path></g><g class="path" style="transform: matrix(0.01, 0, 0, 0.01, 0, 0); transform-origin: 24.975px -19.6944px; animation: 1s linear 0.282857s 1 normal forwards running bounce-in-c8effc56-f5ce-4528-a3a9-0bf791f65a3d;"><path d="M117.45-27.10L117.45-27.10L117.45-27.10Q113.65-27.10 111.85-28.60L111.85-28.60L111.85-28.60Q110.05-30.10 110.05-33.40L110.05-33.40L110.05-33.40Q110.05-36.70 111.88-38.15L111.88-38.15L111.88-38.15Q113.70-39.60 117.45-39.60L117.45-39.60L117.45-39.60Q124.95-39.60 124.95-33.55L124.95-33.55L124.95-33.55Q124.95-30.10 123.10-28.60L123.10-28.60L123.10-28.60Q121.25-27.10 117.45-27.10" fill="#f2dc4d" stroke="none" stroke-width="none" transform="translate(-92.52499389648438,13.655574079241074)" style="fill: rgb(242, 220, 77);"></path></g><g class="path" style="transform: matrix(0.01, 0, 0, 0.01, 0, 0); transform-origin: 24.975px 0.680573px; animation: 1s linear 0.377143s 1 normal forwards running bounce-in-c8effc56-f5ce-4528-a3a9-0bf791f65a3d;"><path d="M124.95 0L110.05 0L110.05-25.95L124.95-25.95L124.95 0" fill="#f2dc4d" stroke="none" stroke-width="none" transform="translate(-92.52499389648438,13.655574079241074)" style="fill: rgb(255, 255, 255);"></path></g><g class="path" style="transform: matrix(0.01, 0, 0, 0.01, 0, 0); transform-origin: 49.8px -1.11942px; animation: 1s linear 0.471429s 1 normal forwards running bounce-in-c8effc56-f5ce-4528-a3a9-0bf791f65a3d;"><path d="M127.85-14.73L127.85-14.73L127.85-14.73Q127.85-22.35 131.33-26.20L131.33-26.20L131.33-26.20Q134.80-30.05 142.70-30.05L142.70-30.05L142.70-30.05Q150.60-30.05 153.70-26.85L153.70-26.85L153.70-26.85Q156.80-23.65 156.80-16.35L156.80-16.35L156.55-12.50L142.75-12.50L142.75-10.80L142.75-10.80Q144-10.50 146.40-10.50L146.40-10.50L146.40-10.50Q151.50-10.50 154.65-10.95L154.65-10.95L155.70-11.10L155.70-1.70L155.70-1.70Q155.30-1.45 154.43-1.07L154.43-1.07L154.43-1.07Q153.55-0.70 150.25-0.10L150.25-0.10L150.25-0.10Q146.95 0.50 142.90 0.50L142.90 0.50L142.90 0.50Q134.90 0.50 131.38-3.30L131.38-3.30L131.38-3.30Q127.85-7.10 127.85-14.73zM142-16.95L142-16.95L142-15L144.85-15L144.85-16.95L144.85-16.95Q144.85-17.60 144.43-18L144.43-18L144.43-18Q144-18.40 143.38-18.40L143.38-18.40L143.38-18.40Q142.75-18.40 142.38-18L142.38-18L142.38-18Q142-17.60 142-16.95" fill="#f2dc4d" stroke="none" stroke-width="none" transform="translate(-92.52499389648438,13.655574079241074)" style="fill: rgb(0, 0, 0);"></path></g><g class="path" style="transform: matrix(0.01, 0, 0, 0.01, 0, 0); transform-origin: 80.55px -1.11942px; animation: 1s linear 0.565714s 1 normal forwards running bounce-in-c8effc56-f5ce-4528-a3a9-0bf791f65a3d;"><path d="M173.20-30.05L173.20-30.05L173.20-30.05Q177.15-30.05 180.33-29.60L180.33-29.60L180.33-29.60Q183.50-29.15 184.70-28.70L184.70-28.70L185.85-28.25L185.85-15.75L185.85-15.75Q182.45-17.50 175.70-17.50L175.70-17.50L175.70-16.30L175.70-16.30Q181.90-15.70 184.20-14.15L184.20-14.15L184.20-14.15Q186.50-12.60 186.50-8.50L186.50-8.50L186.50-8.50Q186.50-4.40 183.45-1.95L183.45-1.95L183.45-1.95Q180.40 0.50 172.80 0.50L172.80 0.50L172.80 0.50Q168.75 0.50 165.60 0.05L165.60 0.05L165.60 0.05Q162.45-0.40 161.30-0.85L161.30-0.85L160.15-1.30L160.15-12.15L160.15-12.15Q161.55-11.45 164.48-10.88L164.48-10.88L164.48-10.88Q167.40-10.30 170.50-10.30L170.50-10.30L170.50-11.50L170.50-11.50Q165.15-12 162.40-13.95L162.40-13.95L162.40-13.95Q159.65-15.90 159.65-20.28L159.65-20.28L159.65-20.28Q159.65-24.65 163.00-27.35L163.00-27.35L163.00-27.35Q166.35-30.05 173.20-30.05" fill="#f2dc4d" stroke="none" stroke-width="none" transform="translate(-92.52499389648438,13.655574079241074)" style="fill: rgb(242, 220, 77);"></path></g></g>
        </g>
    </g>
</svg>
