<svg width="140px"
     height="80px"
     xmlns="http://www.w3.org/2000/svg"
     viewBox="100 -20 300 240"
     style="background: rgb(22, 18, 39);"
     preserveAspectRatio="xMidYMid">
    <defs>
        <linearGradient id="editing-outline-gradient" x1="-0.5" x2="1.5" y1="0.5" y2="0.5">
            <stop offset="0" stop-color="#ffffff"></stop>
            <stop offset="1" stop-color="#ebd909"></stop>
        </linearGradient>
        <filter id="editing-outline" x="-100%" y="-100%" width="300%" height="300%">
            <feMorphology in="SourceGraphic" operator="dilate" radius="3" result="outline"></feMorphology>
            <feComposite operator="out" in="outline" in2="SourceAlpha"></feComposite>
        </filter>
    </defs>
    <g filter="url(#editing-outline)">
        <g transform="translate(44.579997062683105, 128.78000259399414)">
            <path d="M3.66-14.33L3.66-14.33Q3.66-17.67 4.91-21.07L4.91-21.07L4.91-21.07Q6.15-24.47 8.77-27.48L8.77-27.48L8.77-27.48Q18.32-23.29 25.42-21.07L25.42-21.07L25.42-21.07Q32.52-18.84 40.04-18.84L40.04-18.84L40.04-18.84Q41.42-18.84 42.89-19.11L42.89-19.11L42.89-19.11Q44.36-19.37 45.21-19.83L45.21-19.83L45.21-19.83Q45.54-20.54 45.74-21.69L45.74-21.69L45.74-21.69Q45.93-22.83 45.93-23.55L45.93-23.55L45.93-23.55Q45.93-26.76 42.86-29.05L42.86-29.05L42.86-29.05Q39.78-31.34 34.74-33.63L34.74-33.63L32.45-34.74L32.45-34.74Q22.64-39.78 16.72-43.81L16.72-43.81L16.72-43.81Q10.80-47.83 6.71-54.40L6.71-54.40L6.71-54.40Q2.62-60.98 2.62-70.53L2.62-70.53L2.62-70.53Q2.62-84.54 10.44-92.98L10.44-92.98L10.44-92.98Q18.25-101.42 35.33-101.42L35.33-101.42L35.33-101.42Q49.92-101.42 58.43-99.65L58.43-99.65L58.43-99.65Q61.96-97.56 64.61-95.30L64.61-95.30L64.61-95.30Q67.26-93.04 69.68-89.83L69.68-89.83L69.68-89.83Q69.68-85.25 68.80-79.92L68.80-79.92L68.80-79.92Q67.92-74.59 66.38-70.14L66.38-70.14L66.38-70.14Q64.84-65.69 63.07-63.73L63.07-63.73L63.07-63.73Q61.57-63.01 59.74-62.65L59.74-62.65L59.74-62.65Q57.91-62.29 55.22-62.29L55.22-62.29L55.22-62.29Q52.41-62.29 50.64-62.68L50.64-62.68L50.64-62.68Q48.88-63.07 47.37-63.99L47.37-63.99L45.34-77.60L45.34-77.60Q41.55-78.65 37.29-79.14L37.29-79.14L37.29-79.14Q33.04-79.63 31.54-79.56L31.54-79.56L31.54-79.56Q29.12-78.45 28.23-76.45L28.23-76.45L28.23-76.45Q27.35-74.46 27.35-71.71L27.35-71.71L27.35-71.71Q27.35-68.77 28.95-66.64L28.95-66.64L28.95-66.64Q30.56-64.51 32.85-63.14L32.85-63.14L32.85-63.14Q35.14-61.77 38.73-60.06L38.73-60.06L41.61-58.63L41.61-58.63Q50.97-53.72 56.33-50.05L56.33-50.05L56.33-50.05Q61.70-46.39 65.33-40.80L65.33-40.80L65.33-40.80Q68.96-35.20 68.96-27.28L68.96-27.28L68.96-27.28Q68.96-18.06 64.12-11.42L64.12-11.42L64.12-11.42Q59.28-4.78 51.69-1.83L51.69-1.83L51.69-1.83Q47.57-0.20 42.59 0.52L42.59 0.52L42.59 0.52Q37.62 1.24 31.08 1.24L31.08 1.24L31.08 1.24Q26.63 1.24 21.53 0.13L21.53 0.13L21.53 0.13Q16.42-0.98 11.61-3.79L11.61-3.79L11.61-3.79Q6.80-6.61 3.93-11.32L3.93-11.32L3.93-11.32Q3.66-12.56 3.66-14.33L3.66-14.33ZM81.07-22.77L81.00-42.53L81.00-42.53Q81.00-72.89 82.18-84.27L82.18-84.27L74.79-85.58L74.79-85.58Q73.22-91.60 73.22-98.54L73.22-98.54L73.22-98.54Q74.20-99.78 76.88-101.61L76.88-101.61L76.88-101.61Q79.56-103.44 83.13-104.82L83.13-104.82L83.13-104.82Q86.69-106.19 90.23-106.19L90.23-106.19L90.23-106.19Q98.28-106.19 102.20-102.07L102.20-102.07L102.20-102.07Q106.13-97.95 106.13-89.44L106.13-89.44L106.13-89.44Q106.13-85.71 105.47-77.44L105.47-77.44L105.47-77.44Q104.82-69.16 103.58-59.70L103.58-59.70L103.58-59.70Q102.33-50.25 100.70-42.86L100.70-42.86L100.70-42.86Q100.70-42.46 101.15-42.14L101.15-42.14L101.15-42.14Q101.61-41.81 102.14-41.81L102.14-41.81L102.14-41.81Q102.72-41.81 102.92-42.27L102.92-42.27L102.92-42.27Q105.54-52.67 108.16-59.67L108.16-59.67L108.16-59.67Q110.77-66.67 116.07-72.10L116.07-72.10L116.07-72.10Q121.37-77.53 129.81-77.53L129.81-77.53L129.81-77.53Q140.28-77.53 144.86-71.15L144.86-71.15L144.86-71.15Q149.44-64.78 149.44-55.09L149.44-55.09L149.44-55.09Q149.44-46.46 147.41-38.44L147.41-38.44L147.41-38.44Q145.38-30.42 142.38-21.72L142.38-21.72L142.38-21.72Q142.51-22.05 141.46-19.17L141.46-19.17L141.59-19.04L151.27-23.10L151.27-23.10Q156.38-18.71 157.23-11.45L157.23-11.45L157.23-11.45Q157.23-10.99 154.28-7.69L154.28-7.69L154.28-7.69Q151.34-4.38 146.53-1.54L146.53-1.54L146.53-1.54Q141.72 1.31 135.50 1.31L135.50 1.31L135.50 1.31Q129.29 1.31 125.36-2.03L125.36-2.03L125.36-2.03Q121.44-5.37 121.44-13.41L121.44-13.41L121.44-13.41Q121.44-19.83 121.96-30.56L121.96-30.56L121.96-30.56Q122.48-41.29 123.01-47.83L123.01-47.83L123.01-47.83Q121.31-49.66 118.82-49.79L118.82-49.79L118.82-49.79Q116.53-46.85 112.08-38.01L112.08-38.01L112.08-38.01Q107.63-29.18 105.80-24.80L105.80-24.80L105.80-24.80Q105.67-23.88 105.67-23.03L105.67-23.03L105.67-23.03Q105.67-19.76 106.65-14.23L106.65-14.23L106.65-14.23Q107.63-8.70 109.07-3.93L109.07-3.93L109.07-3.93Q107.89-1.70 104.23-0.20L104.23-0.20L104.23-0.20Q100.57 1.31 95.20 1.31L95.20 1.31L95.20 1.31Q90.36 1.31 87.45 0.52L87.45 0.52L87.45 0.52Q84.54-0.26 83.36-1.15L83.36-1.15L83.36-1.15Q82.18-2.03 82.18-2.22L82.18-2.22L82.18-2.22Q82.11-2.81 81.85-5.33L81.85-5.33L81.85-5.33Q81.59-7.85 81.33-12.40L81.33-12.40L81.33-12.40Q81.07-16.95 81.07-22.77L81.07-22.77ZM162.00-38.67L162.00-38.67Q162.00-50.51 165.80-59.21L165.80-59.21L165.80-59.21Q169.59-67.92 177.45-72.73L177.45-72.73L177.45-72.73Q185.30-77.53 197.14-77.53L197.14-77.53L197.14-77.53Q210.23-77.53 217.68-72.66L217.68-72.66L217.68-72.66Q225.14-67.79 228.12-59.15L228.12-59.15L228.12-59.15Q231.10-50.51 231.10-38.01L231.10-38.01L231.10-38.01Q231.10-26.70 227.14-17.83L227.14-17.83L227.14-17.83Q223.18-8.96 215.23-3.83L215.23-3.83L215.23-3.83Q207.28 1.31 195.77 1.31L195.77 1.31L195.77 1.31Q177.97 1.31 169.99-9.65L169.99-9.65L169.99-9.65Q162.00-20.61 162.00-38.67L162.00-38.67ZM198.45-17.86L198.45-17.86Q201.79-17.86 202.50-18.39L202.50-18.39L202.50-18.39Q204.01-21.00 204.79-25.78L204.79-25.78L204.79-25.78Q205.58-30.56 205.58-36.12L205.58-36.12L205.58-36.12Q205.58-41.22 204.93-45.70L204.93-45.70L204.93-45.70Q204.27-50.18 203.09-52.74L203.09-52.74L203.09-52.74Q202.37-53.59 200.21-54.01L200.21-54.01L200.21-54.01Q198.06-54.44 195.50-54.44L195.50-54.44L195.50-54.44Q192.17-54.44 190.92-53.72L190.92-53.72L190.92-53.72Q187.65-48.09 187.65-38.08L187.65-38.08L187.65-38.08Q187.65-33.37 188.37-28.46L188.37-28.46L188.37-28.46Q189.09-23.55 190.20-19.56L190.20-19.56L190.20-19.56Q190.99-18.71 193.41-18.29L193.41-18.29L193.41-18.29Q195.83-17.86 198.45-17.86L198.45-17.86ZM242.55-51.95L238.23-52.80L238.23-52.80Q236.27-58.43 236.27-66.08L236.27-66.08L236.27-66.08Q238.03-70.99 242.09-74.33L242.09-74.33L242.09-74.33Q246.15-77.67 252.30-77.67L252.30-77.67L252.30-77.67Q256.22-77.67 259.10-76.06L259.10-76.06L259.10-76.06Q261.98-74.46 264.34-71.19L264.34-71.19L264.34-71.19Q267.93-66.08 269.90-57.05L269.90-57.05L269.90-57.05Q271.60-49.14 272.74-38.57L272.74-38.57L272.74-38.57Q273.89-28.00 273.89-18.65L273.89-18.65L276.44-18.58L276.44-18.58Q279.12-27.61 280.76-35.79L280.76-35.79L280.76-35.79Q282.39-43.97 283.18-55.29L283.18-55.29L275.46-56.79L275.46-56.79Q274.48-60.33 274.08-62.91L274.08-62.91L274.08-62.91Q273.69-65.50 273.69-68.44L273.69-68.44L273.69-68.44Q273.69-70.14 276.31-72.33L276.31-72.33L276.31-72.33Q278.93-74.52 283.08-76.03L283.08-76.03L283.08-76.03Q287.24-77.53 291.69-77.53L291.69-77.53L291.69-77.53Q308.50-77.53 308.50-60.59L308.50-60.59L308.50-60.59Q308.50-55.16 306.15-48.68L306.15-48.68L306.15-48.68Q309.94-35.59 311.77-18.58L311.77-18.58L312.95-18.52L312.95-18.52Q315.63-24.80 317.82-35.56L317.82-35.56L317.82-35.56Q320.02-46.32 320.02-55.48L320.02-55.48L313.60-56.73L313.60-56.73Q312.62-60.26 312.23-62.85L312.23-62.85L312.23-62.85Q311.84-65.43 311.84-68.37L311.84-68.37L311.84-68.37Q311.84-70.08 314.16-72.27L314.16-72.27L314.16-72.27Q316.48-74.46 320.34-76.00L320.34-76.00L320.34-76.00Q324.20-77.53 328.52-77.53L328.52-77.53L328.52-77.53Q345.73-77.53 345.73-59.54L345.73-59.54L345.73-59.54Q345.73-48.48 341.61-36.58L341.61-36.58L341.61-36.58Q337.49-24.67 331.60-14.85L331.60-14.85L331.60-14.85Q325.71-5.04 320.47 0.39L320.47 0.39L320.47 0.39Q317.20 1.31 313.41 1.31L313.41 1.31L313.41 1.31Q308.89 1.31 304.67 0.10L304.67 0.10L304.67 0.10Q300.45-1.11 297.84-3.40L297.84-3.40L297.84-3.40Q297.38-4.97 296.20-12.04L296.20-12.04L296.20-12.04Q294.50-21.98 293.58-26.37L293.58-26.37L292.27-26.37L292.27-26.37Q288.68-10.67 281.67-0.07L281.67-0.07L281.67-0.07Q278.08 1.31 272.45 1.31L272.45 1.31L272.45 1.31Q267.67 1.31 263.35 0.29L263.35 0.29L263.35 0.29Q259.04-0.72 256.88-2.68L256.88-2.68L256.88-2.68Q256.03-8.70 253.47-19.04L253.47-19.04L253.47-19.04Q250.92-29.38 247.88-38.73L247.88-38.73L247.88-38.73Q244.84-48.09 242.55-51.95L242.55-51.95ZM358.42-23.10L358.42-23.10Q364.18-20.81 367.65-19.56L367.65-19.56L367.65-19.56Q371.12-18.32 375.27-17.40L375.27-17.40L375.27-17.40Q379.43-16.49 383.55-16.49L383.55-16.49L383.55-16.49Q385.38-16.49 386.17-16.82L386.17-16.82L386.17-16.82Q386.36-17.08 386.53-17.63L386.53-17.63L386.53-17.63Q386.69-18.19 386.69-18.78L386.69-18.78L386.69-18.78Q386.69-20.09 385.18-20.94L385.18-20.94L385.18-20.94Q382.83-22.25 376.81-25.06L376.81-25.06L376.81-25.06Q368.57-28.99 363.76-32.06L363.76-32.06L363.76-32.06Q358.95-35.14 355.64-40.24L355.64-40.24L355.64-40.24Q352.34-45.34 352.34-53.06L352.34-53.06L352.34-53.06Q352.34-64.12 358.95-70.83L358.95-70.83L358.95-70.83Q365.56-77.53 379.88-77.53L379.88-77.53L379.88-77.53Q396.96-77.53 406.45-73.08L406.45-73.08L406.45-73.08Q406.91-71.19 406.91-68.31L406.91-68.31L406.91-68.31Q406.91-62.81 405.21-57.09L405.21-57.09L405.21-57.09Q403.50-51.36 400.76-48.61L400.76-48.61L400.76-48.61Q397.03-49.86 390.22-52.61L390.22-52.61L390.22-52.61Q385.25-54.57 382.34-55.65L382.34-55.65L382.34-55.65Q379.43-56.73 377.01-57.19L377.01-57.19L377.01-57.19Q375.70-56.86 374.91-55.65L374.91-55.65L374.91-55.65Q374.13-54.44 374.13-52.80L374.13-52.80L374.13-52.80Q374.13-51.36 374.98-50.38L374.98-50.38L374.98-50.38Q375.83-49.40 376.91-48.84L376.91-48.84L376.91-48.84Q377.99-48.29 380.02-47.37L380.02-47.37L380.02-47.37Q381.06-46.91 381.98-46.55L381.98-46.55L381.98-46.55Q382.89-46.19 383.68-45.87L383.68-45.87L383.68-45.87Q388.78-43.71 391.73-42.33L391.73-42.33L391.73-42.33Q394.67-40.96 397.42-39.06L397.42-39.06L397.42-39.06Q402.46-35.59 405.34-31.14L405.34-31.14L405.34-31.14Q408.22-26.70 408.22-21.40L408.22-21.40L408.22-21.40Q408.22-14.07 404.06-8.73L404.06-8.73L404.06-8.73Q399.91-3.40 393.43-0.98L393.43-0.98L393.43-0.98Q390.03 0.26 386.00 0.82L386.00 0.82L386.00 0.82Q381.98 1.37 376.61 1.37L376.61 1.37L376.61 1.37Q370.27 1.37 363.56-1.08L363.56-1.08L363.56-1.08Q356.85-3.53 353.32-9.29L353.32-9.29L353.32-9.29Q353.39-13.28 354.40-16.26L354.40-16.26L354.40-16.26Q355.41-19.24 358.42-23.10L358.42-23.10Z"
                  fill="url(#editing-outline-gradient)"></path>
        </g>
    </g>
    <style>text {
        font-size: 64px;
        font-family: Arial Black;
        dominant-baseline: central;
        text-anchor: middle;
        }
    </style>
</svg>
