<svg
        width="200px"
        height="100px"
        xmlns="http://www.w3.org/2000/svg"
        viewBox="100 0 300 200"
        style="background: rgba(255, 255, 255, 0);"
        preserveAspectRatio="xMidYMid">
    <defs>
        <linearGradient id="editing-outline-gradient" x1="-0.4702957262759965" x2="1.4702957262759964"
                        y1="0.2580781044003323" y2="0.7419218955996677">
            <stop offset="0" stop-color="#ffe700"></stop>
            <stop offset="1" stop-color="#ffffff"></stop>
        </linearGradient>
        <filter id="editing-outline" x="-100%" y="-100%" width="300%" height="300%">
            <feMorphology in="SourceGraphic" operator="dilate" radius="4" result="outline"></feMorphology>
            <feComposite operator="out" in="outline" in2="SourceAlpha"></feComposite>
        </filter>
    </defs>
    <g filter="url(#editing-outline)">
        <g transform="translate(56.40999388694763, 116.30500030517578)">
            <path d="M50.37-71.17L85.90-71.17L85.90 0L50.37 0L50.37-25.75L45.84-13.80L43.16-13.80L38.42-25.75L38.42 0L2.99 0L2.99-71.17L38.42-71.17L43.16-57.47L45.84-57.47L50.37-71.17ZM125.87 0.93L125.87 0.93L121.75 0.93L121.75 0.93Q106.71 0.93 99.24-6.49L99.24-6.49L99.24-6.49Q91.77-13.91 91.77-30.39L91.77-30.39L91.77-30.39Q91.77-46.87 99.24-54.38L99.24-54.38L99.24-54.38Q106.71-61.90 121.75-61.90L121.75-61.90L125.87-61.90L125.87-61.90Q140.90-61.90 148.42-54.38L148.42-54.38L148.42-54.38Q155.94-46.87 155.94-30.39L155.94-30.39L155.94-30.39Q155.94-13.91 148.47-6.49L148.47-6.49L148.47-6.49Q141.01 0.93 125.87 0.93ZM120.92-31.21L120.92-31.21L120.92-22.56L120.92-22.56Q120.92-21.22 121.69-20.39L121.69-20.39L121.69-20.39Q122.47-19.57 123.75-19.57L123.75-19.57L123.75-19.57Q125.04-19.57 125.92-20.39L125.92-20.39L125.92-20.39Q126.79-21.22 126.79-22.56L126.79-22.56L126.79-31.21L126.79-31.21Q126.79-32.45 125.92-33.32L125.92-33.32L125.92-33.32Q125.04-34.20 123.81-34.20L123.81-34.20L123.81-34.20Q122.57-34.20 121.75-33.32L121.75-33.32L121.75-33.32Q120.92-32.45 120.92-31.21ZM187.46-60.87L189.52-22.56L192.20-22.56L194.16-60.87L222.27-60.87L213.21 0L166.96 0L157.69-60.87L187.46-60.87ZM241.95-55.83L241.95-55.83L241.95-55.83Q234.12-55.83 230.41-58.92L230.41-58.92L230.41-58.92Q226.70-62.01 226.70-68.80L226.70-68.80L226.70-68.80Q226.70-75.60 230.46-78.59L230.46-78.59L230.46-78.59Q234.22-81.58 241.95-81.58L241.95-81.58L241.95-81.58Q257.40-81.58 257.40-69.11L257.40-69.11L257.40-69.11Q257.40-62.01 253.59-58.92L253.59-58.92L253.59-58.92Q249.78-55.83 241.95-55.83ZM257.40 0L226.70 0L226.70-53.46L257.40-53.46L257.40 0ZM263.37-30.33L263.37-30.33L263.37-30.33Q263.37-46.04 270.53-53.97L270.53-53.97L270.53-53.97Q277.69-61.90 293.96-61.90L293.96-61.90L293.96-61.90Q310.24-61.90 316.62-55.31L316.62-55.31L316.62-55.31Q323.01-48.72 323.01-33.68L323.01-33.68L322.49-25.75L294.06-25.75L294.06-22.25L294.06-22.25Q296.64-21.63 301.58-21.63L301.58-21.63L301.58-21.63Q312.09-21.63 318.58-22.56L318.58-22.56L320.74-22.87L320.74-3.50L320.74-3.50Q319.92-2.99 318.12-2.21L318.12-2.21L318.12-2.21Q316.31-1.44 309.52-0.21L309.52-0.21L309.52-0.21Q302.72 1.03 294.37 1.03L294.37 1.03L294.37 1.03Q277.89 1.03 270.63-6.80L270.63-6.80L270.63-6.80Q263.37-14.63 263.37-30.33ZM292.52-34.92L292.52-34.92L292.52-30.90L298.39-30.90L298.39-34.92L298.39-34.92Q298.39-36.26 297.52-37.08L297.52-37.08L297.52-37.08Q296.64-37.90 295.35-37.90L295.35-37.90L295.35-37.90Q294.06-37.90 293.29-37.08L293.29-37.08L293.29-37.08Q292.52-36.26 292.52-34.92ZM356.79-61.90L356.79-61.90L356.79-61.90Q364.93-61.90 371.47-60.98L371.47-60.98L371.47-60.98Q378.01-60.05 380.48-59.12L380.48-59.12L382.85-58.20L382.85-32.45L382.85-32.45Q375.85-36.05 361.94-36.05L361.94-36.05L361.94-33.58L361.94-33.58Q374.71-32.34 379.45-29.15L379.45-29.15L379.45-29.15Q384.19-25.96 384.19-17.51L384.19-17.51L384.19-17.51Q384.19-9.06 377.91-4.02L377.91-4.02L377.91-4.02Q371.62 1.03 355.97 1.03L355.97 1.03L355.97 1.03Q347.63 1.03 341.14 0.10L341.14 0.10L341.14 0.10Q334.65-0.82 332.28-1.75L332.28-1.75L329.91-2.68L329.91-25.03L329.91-25.03Q332.79-23.59 338.82-22.40L338.82-22.40L338.82-22.40Q344.84-21.22 351.23-21.22L351.23-21.22L351.23-23.69L351.23-23.69Q340.21-24.72 334.54-28.74L334.54-28.74L334.54-28.74Q328.88-32.75 328.88-41.77L328.88-41.77L328.88-41.77Q328.88-50.78 335.78-56.34L335.78-56.34L335.78-56.34Q342.68-61.90 356.79-61.90Z"
                  fill="url(#editing-outline-gradient)"></path>
        </g>
    </g>
    <style>text {
        font-size: 64px;
        font-family: Arial Black;
        dominant-baseline: central;
        text-anchor: middle;
        }
    </style>
</svg>
